<svg xmlns="http://www.w3.org/2000/svg" viewBox="0 0 1280 720" data-pptx-page-role="content" font-family="Microsoft YaHei, Arial, sans-serif"><rect id="background" data-pptx-role="background" width="1280" height="720" fill="#FFFDF5" /><g id="page-header" data-pptx-bounds="48 32 1184 78">
      <rect x="48" y="36" width="12" height="56" rx="6" fill="#FF6FA5" />
      <text x="82" y="70" font-family="YouYuan, Microsoft YaHei, sans-serif" font-size="38" font-weight="700" fill="#203044">常见问题：先判断是哪一类错误</text>
      <text x="82" y="100" font-size="18" fill="#FF6FA5">停止、顺序、变量——三类问题三种检查法</text>
    </g><g id="bug-1" data-pptx-bounds="70 176 356 360"><rect x="70" y="176" width="356" height="360" rx="36" fill="#FFFFFF" stroke="#FF6FA5" stroke-width="3" /><circle cx="118" cy="224" r="24" fill="#FF6FA5" /><text x="118" y="232" text-anchor="middle" font-size="22" font-weight="700" fill="#FFFFFF">!</text><text x="158" y="232" font-size="23" font-weight="700" fill="#203044">循环停不下</text><text x="104" y="302" font-size="18" font-weight="700" fill="#FF6FA5">可能原因</text><text x="104" y="340" font-size="20" fill="#203044">漏掉计数增加</text><text x="104" y="406" font-size="18" font-weight="700" fill="#22C55E">处理方法</text><text x="104" y="444" font-size="18" fill="#203044">先停止，再检查计数是否变化</text></g><g id="bug-2" data-pptx-bounds="468 176 356 360"><rect x="468" y="176" width="356" height="360" rx="36" fill="#FFFFFF" stroke="#FF9F1C" stroke-width="3" /><circle cx="516" cy="224" r="24" fill="#FF9F1C" /><text x="516" y="232" text-anchor="middle" font-size="22" font-weight="700" fill="#FFFFFF">!</text><text x="556" y="232" font-size="23" font-weight="700" fill="#203044">空白也被计次</text><text x="502" y="302" font-size="18" font-weight="700" fill="#FF9F1C">可能原因</text><text x="502" y="340" font-size="20" fill="#203044">continue 放在计数后</text><text x="502" y="406" font-size="18" font-weight="700" fill="#22C55E">处理方法</text><text x="502" y="444" font-size="18" fill="#203044">先过滤空白，再做 tries + 1</text></g><g id="bug-3" data-pptx-bounds="866 176 356 360"><rect x="866" y="176" width="356" height="360" rx="36" fill="#FFFFFF" stroke="#2E9BFF" stroke-width="3" /><circle cx="914" cy="224" r="24" fill="#2E9BFF" /><text x="914" y="232" text-anchor="middle" font-size="22" font-weight="700" fill="#FFFFFF">!</text><text x="954" y="232" font-size="23" font-weight="700" fill="#203044">变量还没准备好</text><text x="900" y="302" font-size="18" font-weight="700" fill="#2E9BFF">可能原因</text><text x="900" y="340" font-size="20" fill="#203044">循环后使用 password</text><text x="900" y="406" font-size="18" font-weight="700" fill="#22C55E">处理方法</text><text x="900" y="444" font-size="18" fill="#203044">确认循环一定执行，或先给变量初值</text></g><g id="footer-31" data-pptx-role="footer" data-pptx-bounds="48 674 1184 30"><text x="48" y="690" font-size="14" fill="#7A8A9B">小小特工任务中心</text><text x="1232" y="690" text-anchor="end" font-size="14" fill="#7A8A9B">31 / 32</text></g></svg>