<svg xmlns="http://www.w3.org/2000/svg" viewBox="0 0 1280 720" data-pptx-page-role="content" font-family="Microsoft YaHei, Arial, sans-serif">
  <rect id="background" data-pptx-role="background" width="1280" height="720" fill="#FFFDF5"/>
  <g id="question" data-pptx-bounds="54 46 610 560"><rect x="54" y="46" width="220" height="54" rx="27" fill="#FF6FA5"/><text x="164" y="83" text-anchor="middle" font-size="24" font-weight="700" fill="#FFFFFF">课堂思考</text><text x="54" y="166" font-family="YouYuan, Microsoft YaHei, sans-serif" font-size="44" font-weight="700" fill="#203044">哪一行让电脑说话？</text><rect x="54" y="212" width="550" height="72" rx="24" fill="#EAF5FF"/><text x="82" y="256" font-size="22" fill="#203044">A　#include &lt;iostream&gt;</text><rect x="54" y="300" width="550" height="72" rx="24" fill="#EAF5FF"/><text x="82" y="344" font-size="22" fill="#203044">B　using namespace std;</text><rect x="54" y="388" width="550" height="72" rx="24" fill="#22C55E"/><text x="82" y="432" font-family="Consolas, Courier New, monospace" font-size="22" font-weight="700" fill="#FFFFFF">C　cout &lt;&lt; "Hello World!";</text><rect x="54" y="476" width="550" height="72" rx="24" fill="#EAF5FF"/><text x="82" y="520" font-size="22" fill="#203044">D　return 0;</text></g>
  <g id="answer-explain" data-pptx-bounds="692 112 520 462"><rect x="692" y="112" width="520" height="462" rx="40" fill="#17243A"/><use data-icon="tabler-filled/device-speaker" x="734" y="166" width="72" height="72" fill="#2E9BFF"/><text x="830" y="210" font-size="32" font-weight="700" fill="#FFFFFF">答案：C</text><text x="734" y="292" font-family="Consolas, Courier New, monospace" font-size="28" font-weight="700" fill="#FF9F1C">cout</text><text x="822" y="292" font-size="24" fill="#FFFFFF">把信息送到屏幕</text><line x1="734" y1="326" x2="1168" y2="326" stroke="#2E9BFF" stroke-width="3"/><text x="734" y="382" font-size="22" fill="#EAF5FF">其他几块也有作用：</text><text x="734" y="426" font-size="20" fill="#EAF5FF">工具箱 · 标准仓库 · 正门 · 完成印章</text><text x="734" y="500" font-size="22" font-weight="700" fill="#22C55E">先认出 cout，再理解完整程序。</text></g>
</svg>
