<svg xmlns="http://www.w3.org/2000/svg" viewBox="0 0 1280 720" data-pptx-page-role="content" font-family="Microsoft YaHei, Arial, sans-serif"><rect x="0" y="0" width="1280" height="720" rx="0" fill="#FFFDF5" id="page-bg" /><circle cx="1210" cy="35" r="66" fill="#EAF5FF" opacity="0.9" /><circle cx="1250" cy="95" r="26" fill="#FFE2ED" opacity="0.9" /><rect x="34" y="28" width="16" height="54" rx="8" fill="#FF9F1C" /><text x="64" y="70" font-family="YouYuan, Microsoft YaHei, sans-serif" font-size="40" font-weight="700" fill="#203044" text-anchor="start">② 新命令小实验</text><text x="66" y="100" font-family="Microsoft YaHei, Arial, sans-serif" font-size="17" font-weight="400" fill="#60758A" text-anchor="start">每讲一个命令，马上运行一次；不要连续听讲不验证</text><rect x="1000" y="34" width="210" height="42" rx="21" fill="#EAF5FF" /><text x="1105.0" y="62" font-family="Microsoft YaHei, Arial, sans-serif" font-size="16" font-weight="700" fill="#2E9BFF" text-anchor="middle">新命令实验</text><rect x="48" y="655" width="128" height="42" rx="21" fill="#FFF2DC" /><text x="112.0" y="683" font-family="Microsoft YaHei, Arial, sans-serif" font-size="15" font-weight="700" fill="#FF9F1C" text-anchor="middle">P13</text><rect x="48" y="142" width="1184" height="450" rx="34" fill="#FFFFFF" stroke="#CFE5F8" stroke-width="2" /><circle cx="1110" cy="360" r="150" fill="#EAF5FF" /><g opacity="1" id="scene-decoration-p13-01" data-pptx-role="decoration" data-pptx-bounds="0 0 1280 720"><circle cx="1090" cy="350" r="30" fill="#22C55E" /><circle cx="1124" cy="350" r="13" fill="#22C55E" /><circle cx="1072" cy="326" r="8" fill="#22C55E" /><circle cx="1108" cy="326" r="8" fill="#22C55E" /><circle cx="1072" cy="374" r="8" fill="#22C55E" /><circle cx="1108" cy="374" r="8" fill="#22C55E" /><circle cx="1128" cy="346" r="2" fill="#17243A" /></g><circle cx="105" cy="196" r="22" fill="#2E9BFF" /><text x="105" y="204" font-family="Microsoft YaHei, Arial, sans-serif" font-size="17" font-weight="700" fill="#FFFFFF" text-anchor="middle">1</text><text x="144" y="206" font-family="Microsoft YaHei, Arial, sans-serif" font-size="25" font-weight="700" fill="#203044" text-anchor="start"><tspan x="144" dy="0">showturtle()：让小海龟上场</tspan></text><circle cx="105" cy="284" r="22" fill="#FF9F1C" /><text x="105" y="292" font-family="Microsoft YaHei, Arial, sans-serif" font-size="17" font-weight="700" fill="#FFFFFF" text-anchor="middle">2</text><text x="144" y="294" font-family="Microsoft YaHei, Arial, sans-serif" font-size="25" font-weight="500" fill="#203044" text-anchor="start"><tspan x="144" dy="0">hideturtle()：作品完成后让小海龟退场</tspan></text><circle cx="105" cy="372" r="22" fill="#FF6FA5" /><text x="105" y="380" font-family="Microsoft YaHei, Arial, sans-serif" font-size="17" font-weight="700" fill="#FFFFFF" text-anchor="middle">3</text><text x="144" y="382" font-family="Microsoft YaHei, Arial, sans-serif" font-size="25" font-weight="500" fill="#203044" text-anchor="start"><tspan x="144" dy="0">screen.title()：给图形窗口起名字</tspan></text><circle cx="105" cy="460" r="22" fill="#22C55E" /><text x="105" y="468" font-family="Microsoft YaHei, Arial, sans-serif" font-size="17" font-weight="700" fill="#FFFFFF" text-anchor="middle">4</text><text x="144" y="470" font-family="Microsoft YaHei, Arial, sans-serif" font-size="25" font-weight="500" fill="#203044" text-anchor="start"><tspan x="144" dy="0">小步测试：只改一处，再运行一次</tspan></text><text x="1220" y="684" font-family="Microsoft YaHei, Arial, sans-serif" font-size="14" font-weight="400" fill="#60758A" text-anchor="end">阳光积木实验室 · 一次只做清楚一件事</text></svg>