<svg xmlns="http://www.w3.org/2000/svg" viewBox="0 0 1280 720" data-pptx-page-role="content" font-family="Microsoft YaHei, Arial, sans-serif">
  <rect id="background" data-pptx-role="background" width="1280" height="720" fill="#FFFDF5"/>
  <rect id="console-top-band" data-pptx-role="decoration" x="0" y="0" width="1280" height="18" fill="#2E9BFF"/>
  <g id="console-header" data-pptx-bounds="48 38 1184 76"><!-- icon: tabler-filled/code-circle -->
  <g transform="translate(48, 42) scale(2.25)" fill="#2E9BFF">
    <path d="M17 3.34a10 10 0 1 1 -15 8.66l.005 -.324a10 10 0 0 1 14.995 -8.336m-6.293 5.953a1 1 0 0 0 -1.414 0l-2 2a1 1 0 0 0 0 1.414l2 2a1 1 0 0 0 1.414 0l.083 -.094a1 1 0 0 0 -.083 -1.32l-1.292 -1.293l1.292 -1.293a1 1 0 0 0 0 -1.414m4 0a1 1 0 0 0 -1.414 0l-.083 .094a1 1 0 0 0 .083 1.32l1.292 1.293l-1.292 1.293a1 1 0 0 0 1.414 1.414l2 -2a1 1 0 0 0 0 -1.414z" />
  </g><text x="120" y="76" font-family="YouYuan, Microsoft YaHei, sans-serif" font-size="36" font-weight="700" fill="#203044">cout 输出实验室</text><text x="120" y="106" font-size="20" fill="#2E9BFF">同样是 3+5，电脑会说出什么？</text><rect x="820" y="46" width="412" height="54" rx="27" fill="#EAF5FF"/><text x="1026" y="80" text-anchor="middle" font-size="18" font-weight="700" fill="#203044">① 选任务　→　② 看代码　→　③ 运行　→　④ 看结果</text></g>
  <g id="task-panel" data-pptx-bounds="48 126 1184 112"><rect x="48" y="126" width="1184" height="112" rx="30" fill="#FFFFFF" stroke="#CFE5F8" stroke-width="2"/></g>
  <g id="task-t1-button" data-pptx-bounds="68 146 352 72"><rect x="68" y="146" width="352" height="72" rx="22" fill="#EAF5FF" stroke="#A8D5FF" stroke-width="2"/><circle cx="108" cy="182" r="22" fill="#2E9BFF"/><text x="108" y="190" text-anchor="middle" font-size="22" font-weight="700" fill="#FFFFFF">文</text><text x="150" y="190" font-size="22" font-weight="700" fill="#203044">输出文字</text><text x="390" y="190" text-anchor="end" font-size="18" fill="#2E9BFF">"3+5"</text></g>
  <g id="task-t2-button" data-pptx-bounds="440 146 352 72"><rect x="440" y="146" width="352" height="72" rx="22" fill="#FFF2DC" stroke="#FFD08A" stroke-width="2"/><circle cx="480" cy="182" r="22" fill="#FF9F1C"/><text x="480" y="190" text-anchor="middle" font-size="22" font-weight="700" fill="#FFFFFF">算</text><text x="522" y="190" font-size="22" font-weight="700" fill="#203044">输出计算结果</text><text x="760" y="190" text-anchor="end" font-size="18" fill="#FF9F1C">8</text></g>
  <g id="task-t3-button" data-pptx-bounds="812 146 400 72"><rect x="812" y="146" width="400" height="72" rx="22" fill="#FFE2ED" stroke="#FFB7D1" stroke-width="2"/><circle cx="852" cy="182" r="22" fill="#FF6FA5"/><text x="852" y="191" text-anchor="middle" font-size="24" font-weight="700" fill="#FFFFFF">✨</text><text x="894" y="190" font-size="21" font-weight="700" fill="#203044">换行魔法 endl</text><text x="1182" y="190" text-anchor="end" font-size="17" fill="#FF6FA5">Hello ↵ World</text></g>
  <g id="task-t1-hit" data-pptx-bounds="68 146 352 72"><rect x="68" y="146" width="352" height="72" rx="22" fill="#FFFFFF" fill-opacity="0.001"/></g>
  <g id="task-t2-hit" data-pptx-bounds="440 146 352 72"><rect x="440" y="146" width="352" height="72" rx="22" fill="#FFFFFF" fill-opacity="0.001"/></g>
  <g id="task-t3-hit" data-pptx-bounds="812 146 400 72"><rect x="812" y="146" width="400" height="72" rx="22" fill="#FFFFFF" fill-opacity="0.001"/></g>
  <g id="code-editor-shell" data-pptx-bounds="48 258 700 404"><rect x="48" y="258" width="700" height="404" rx="34" fill="#FFFFFF" stroke="#CFE5F8" stroke-width="3"/><circle cx="82" cy="292" r="8" fill="#FF6FA5"/><circle cx="108" cy="292" r="8" fill="#FF9F1C"/><circle cx="134" cy="292" r="8" fill="#22C55E"/><text x="174" y="300" font-size="20" font-weight="700" fill="#203044">代码编辑器</text><rect x="72" y="320" width="652" height="260" rx="22" fill="#F8FBFF"/><text x="96" y="356" font-family="Consolas, Courier New, monospace" font-size="18" fill="#2E9BFF">#include &lt;iostream&gt;</text><text x="96" y="394" font-family="Consolas, Courier New, monospace" font-size="18" fill="#FF9F1C">using namespace std;</text><text x="96" y="432" font-family="Consolas, Courier New, monospace" font-size="18" fill="#203044">int main() {</text><rect x="86" y="446" width="620" height="88" rx="15" fill="#EAF5FF"/><text x="96" y="558" font-family="Consolas, Courier New, monospace" font-size="18" fill="#22C55E">return 0;</text><text x="96" y="586" font-family="Consolas, Courier New, monospace" font-size="18" fill="#203044">}</text><text x="76" y="640" font-size="18" fill="#2E9BFF">先选任务，再运行看看答案 ✨</text></g>
  <g id="code-t1-initial" data-pptx-bounds="102 452 590 74"><text x="112" y="494" font-family="Consolas, Microsoft YaHei, monospace" font-size="21" font-weight="700" fill="#2E9BFF">cout &lt;&lt; "3+5";</text></g>
  <g id="code-t1-state" data-pptx-bounds="102 452 590 74"><text x="112" y="494" font-family="Consolas, Microsoft YaHei, monospace" font-size="21" font-weight="700" fill="#2E9BFF">cout &lt;&lt; "3+5";</text></g>
  <g id="code-t2-state" data-pptx-bounds="102 452 590 74"><text x="112" y="494" font-family="Consolas, Microsoft YaHei, monospace" font-size="21" font-weight="700" fill="#FF9F1C">cout &lt;&lt; 3+5;</text></g>
  <g id="code-t3-state" data-pptx-bounds="102 452 590 74"><text x="112" y="478" font-family="Consolas, Microsoft YaHei, monospace" font-size="19" font-weight="700" fill="#FF6FA5">cout &lt;&lt; "Hello" &lt;&lt; endl;</text><text x="112" y="512" font-family="Consolas, Microsoft YaHei, monospace" font-size="19" font-weight="700" fill="#FF6FA5">cout &lt;&lt; "World";</text></g>
  <g id="run-t1-initial" data-pptx-bounds="512 586 212 58"><rect x="512" y="586" width="212" height="58" rx="22" fill="#2E9BFF"/><text x="618" y="624" text-anchor="middle" font-size="22" font-weight="700" fill="#FFFFFF">▶ 运行程序</text></g>
  <g id="run-t1-button" data-pptx-bounds="512 586 212 58"><rect x="512" y="586" width="212" height="58" rx="22" fill="#2E9BFF"/><text x="618" y="624" text-anchor="middle" font-size="22" font-weight="700" fill="#FFFFFF">▶ 运行程序</text></g>
  <g id="run-t2-button" data-pptx-bounds="512 586 212 58"><rect x="512" y="586" width="212" height="58" rx="22" fill="#FF9F1C"/><text x="618" y="624" text-anchor="middle" font-size="22" font-weight="700" fill="#FFFFFF">▶ 运行程序</text></g>
  <g id="run-t3-button" data-pptx-bounds="512 586 212 58"><rect x="512" y="586" width="212" height="58" rx="22" fill="#FF6FA5"/><text x="618" y="624" text-anchor="middle" font-size="22" font-weight="700" fill="#FFFFFF">▶ 运行程序</text></g>
  <g id="terminal-shell" data-pptx-bounds="772 258 460 404"><rect x="772" y="258" width="460" height="404" rx="34" fill="#EAF5FF"/><text x="808" y="302" font-size="24" font-weight="700" fill="#203044">终端输出</text><rect x="796" y="322" width="412" height="236" rx="26" fill="#17243A"/><circle cx="826" cy="352" r="7" fill="#FF6FA5"/><circle cx="850" cy="352" r="7" fill="#FF9F1C"/><circle cx="874" cy="352" r="7" fill="#22C55E"/><text x="900" y="358" font-size="18" font-weight="700" fill="#EAF5FF">终端输出</text><rect x="800" y="578" width="404" height="58" rx="20" fill="#FFFFFF"/></g>
  <g id="terminal-guide-initial" data-pptx-bounds="820 586 364 42"><text x="1002" y="614" text-anchor="middle" font-size="19" font-weight="700" fill="#2E9BFF">点击运行，让电脑开口说话!</text></g>
  <g id="terminal-guide-active" data-pptx-bounds="820 586 364 42"><text x="1002" y="614" text-anchor="middle" font-size="19" font-weight="700" fill="#2E9BFF">点击运行，让电脑开口说话!</text></g>
  <g id="terminal-running" data-pptx-bounds="820 586 364 42"><text x="1002" y="614" text-anchor="middle" font-size="20" font-weight="700" fill="#FF9F1C">运行中...</text></g>
  <g id="terminal-done" data-pptx-bounds="820 586 364 42"><text x="1002" y="614" text-anchor="middle" font-size="20" font-weight="700" fill="#22C55E">电脑说话了！！</text></g>
  <g id="out-t1-char-01" data-pptx-bounds="916 390 34 54"><text x="933" y="428" text-anchor="middle" font-family="Consolas, monospace" font-size="32" font-weight="700" fill="#FFFFFF">3</text></g>
  <g id="out-t1-char-02" data-pptx-bounds="950 390 34 54"><text x="967" y="428" text-anchor="middle" font-family="Consolas, monospace" font-size="32" font-weight="700" fill="#FFFFFF">+</text></g>
  <g id="out-t1-char-03" data-pptx-bounds="984 390 34 54"><text x="1001" y="428" text-anchor="middle" font-family="Consolas, monospace" font-size="32" font-weight="700" fill="#FFFFFF">5</text></g>
  <g id="out-t2-char-01" data-pptx-bounds="984 390 34 54"><text x="1001" y="428" text-anchor="middle" font-family="Consolas, monospace" font-size="32" font-weight="700" fill="#FFFFFF">8</text></g>
  <g id="out-t3-char-01" data-pptx-bounds="912 382 34 44"><text x="929" y="416" text-anchor="middle" font-family="Consolas, monospace" font-size="28" font-weight="700" fill="#FFFFFF">H</text></g>
  <g id="out-t3-char-02" data-pptx-bounds="946 382 34 44"><text x="963" y="416" text-anchor="middle" font-family="Consolas, monospace" font-size="28" font-weight="700" fill="#FFFFFF">e</text></g>
  <g id="out-t3-char-03" data-pptx-bounds="980 382 34 44"><text x="997" y="416" text-anchor="middle" font-family="Consolas, monospace" font-size="28" font-weight="700" fill="#FFFFFF">l</text></g>
  <g id="out-t3-char-04" data-pptx-bounds="1014 382 34 44"><text x="1031" y="416" text-anchor="middle" font-family="Consolas, monospace" font-size="28" font-weight="700" fill="#FFFFFF">l</text></g>
  <g id="out-t3-char-05" data-pptx-bounds="1048 382 34 44"><text x="1065" y="416" text-anchor="middle" font-family="Consolas, monospace" font-size="28" font-weight="700" fill="#FFFFFF">o</text></g>
  <g id="out-t3-char-06" data-pptx-bounds="912 430 34 44"><text x="929" y="464" text-anchor="middle" font-family="Consolas, monospace" font-size="28" font-weight="700" fill="#FFFFFF">W</text></g>
  <g id="out-t3-char-07" data-pptx-bounds="946 430 34 44"><text x="963" y="464" text-anchor="middle" font-family="Consolas, monospace" font-size="28" font-weight="700" fill="#FFFFFF">o</text></g>
  <g id="out-t3-char-08" data-pptx-bounds="980 430 34 44"><text x="997" y="464" text-anchor="middle" font-family="Consolas, monospace" font-size="28" font-weight="700" fill="#FFFFFF">r</text></g>
  <g id="out-t3-char-09" data-pptx-bounds="1014 430 34 44"><text x="1031" y="464" text-anchor="middle" font-family="Consolas, monospace" font-size="28" font-weight="700" fill="#FFFFFF">l</text></g>
  <g id="out-t3-char-10" data-pptx-bounds="1048 430 34 44"><text x="1065" y="464" text-anchor="middle" font-family="Consolas, monospace" font-size="28" font-weight="700" fill="#FFFFFF">d</text></g>
</svg>
