<svg xmlns="http://www.w3.org/2000/svg" viewBox="0 0 1280 720" data-pptx-page-role="content" font-family="Microsoft YaHei, Arial, sans-serif">
  <rect id="background" data-pptx-role="background" width="1280" height="720" fill="#FFFDF5"/>
  <g id="header" data-pptx-bounds="50 30 1040 84"><!-- icon: tabler-filled/list-check -->
  <g transform="translate(50, 32) scale(2.16667)" fill="#2E9BFF">
    <path d="M8.207 3.793a1 1 0 0 1 0 1.414l-2.5 2.5a1 1 0 0 1 -1.414 0l-1.5 -1.5a1 1 0 0 1 1.414 -1.414l.793 .793l1.793 -1.793a1 1 0 0 1 1.414 0" />
    <path d="M8.207 9.793a1 1 0 0 1 0 1.414l-2.5 2.5a1 1 0 0 1 -1.414 0l-1.5 -1.5a1 1 0 0 1 1.414 -1.414l.793 .793l1.793 -1.793a1 1 0 0 1 1.414 0" />
    <path d="M8.207 15.793a1 1 0 0 1 0 1.414l-2.5 2.5a1 1 0 0 1 -1.414 0l-1.5 -1.5a1 1 0 0 1 1.414 -1.414l.793 .793l1.793 -1.793a1 1 0 0 1 1.414 0" />
    <path d="M21 6a1 1 0 0 1 -1 1h-9a1 1 0 0 1 0 -2h9a1 1 0 0 1 1 1" />
    <path d="M21 12a1 1 0 0 1 -1 1h-9a1 1 0 0 1 0 -2h9a1 1 0 0 1 1 1" />
    <path d="M21 18a1 1 0 0 1 -1 1h-9a1 1 0 0 1 0 -2h9a1 1 0 0 1 1 1" />
  </g><text x="122" y="78" font-family="YouYuan, Microsoft YaHei, sans-serif" font-size="44" font-weight="700" fill="#203044">综合精练 · 8 道编程题</text></g>
  <g id="practice-list" data-pptx-bounds="50 128 760 536"><rect x="50" y="128" width="760" height="536" rx="40" fill="#EAF5FF"/><text x="88" y="180" font-size="24" font-weight="700" fill="#2E9BFF">按“文字 → 数字 → 图案 → 综合”闯关</text><rect x="88" y="214" width="316" height="76" rx="24" fill="#FFFFFF"/><text x="112" y="260" font-size="20" fill="#203044">□ N3113　废话上代码</text><rect x="426" y="214" width="342" height="76" rx="24" fill="#FFFFFF"/><text x="450" y="260" font-size="20" fill="#203044">□ N6648　输出英文单词</text><rect x="88" y="306" width="316" height="76" rx="24" fill="#FFFFFF"/><text x="112" y="352" font-size="20" fill="#203044">□ N6685　输出偶数</text><rect x="426" y="306" width="342" height="76" rx="24" fill="#FFFFFF"/><text x="450" y="352" font-size="20" fill="#203044">□ C5000　自我介绍</text><rect x="88" y="398" width="316" height="76" rx="24" fill="#FFFFFF"/><text x="112" y="444" font-size="20" fill="#203044">□ C5003　输出菱形</text><rect x="426" y="398" width="342" height="76" rx="24" fill="#FFFFFF"/><text x="450" y="444" font-size="20" fill="#203044">□ Q3008　雪花</text><rect x="88" y="490" width="316" height="76" rx="24" fill="#FFFFFF"/><text x="112" y="536" font-size="20" fill="#203044">□ Q3006　长方形</text><rect x="426" y="490" width="342" height="76" rx="24" fill="#FFFFFF"/><text x="450" y="536" font-size="20" fill="#203044">□ N6691　背诵诗词</text><text x="88" y="618" font-size="20" font-weight="700" fill="#FF9F1C">每题：读题 → 写代码 → 运行 → 找错</text></g>
  <g id="parent-coach" data-pptx-bounds="850 128 380 536"><rect x="850" y="128" width="380" height="536" rx="40" fill="#17243A"/><text x="890" y="184" font-size="28" font-weight="700" fill="#FFFFFF">家长怎么陪？</text><rect x="890" y="224" width="300" height="104" rx="28" fill="#2E9BFF"/><text x="920" y="266" font-size="22" font-weight="700" fill="#FFFFFF">1　只问检查问题</text><text x="920" y="302" font-size="18" fill="#EAF5FF">不直接报答案</text><rect x="890" y="352" width="300" height="104" rx="28" fill="#FF9F1C"/><text x="920" y="394" font-size="22" font-weight="700" fill="#FFFFFF">2　让孩子口述五要素</text><text x="920" y="430" font-size="18" fill="#FFFDF5">说比喻，也说技术作用</text><rect x="890" y="480" width="300" height="104" rx="28" fill="#FF6FA5"/><text x="920" y="522" font-size="22" font-weight="700" fill="#FFFFFF">3　完成后勾选</text><text x="920" y="558" font-size="18" fill="#FFFDF5">说出遇到的错误</text><!-- icon: tabler-filled/star -->
  <g transform="translate(1016, 602) scale(1.75)" fill="#22C55E">
    <path d="M8.243 7.34l-6.38 .925l-.113 .023a1 1 0 0 0 -.44 1.684l4.622 4.499l-1.09 6.355l-.013 .11a1 1 0 0 0 1.464 .944l5.706 -3l5.693 3l.1 .046a1 1 0 0 0 1.352 -1.1l-1.091 -6.355l4.624 -4.5l.078 -.085a1 1 0 0 0 -.633 -1.62l-6.38 -.926l-2.852 -5.78a1 1 0 0 0 -1.794 0l-2.853 5.78z" />
  </g></g>
</svg>
